<svg xmlns="http://www.w3.org/2000/svg" width="15" height="17" viewBox="0 0 15 17">
  <path id="glossary-icon" d="M13.625,16H2a2,2,0,0,1-2-2V2.5A2.5,2.5,0,0,1,2.5,0H13.25A.748.748,0,0,1,14,.75v11.5a.75.75,0,0,1-.466.694A5.95,5.95,0,0,0,13.522,15h.1a.375.375,0,0,1,.375.375v.25A.375.375,0,0,1,13.625,16ZM2,13a1,1,0,0,0,0,2H12.634a7.092,7.092,0,0,1,0-2ZM8.92,3.963a.258.258,0,0,0-.252.262v.523a.257.257,0,0,0,.252.262H9.8L8.838,6.163a.532.532,0,0,0-.17.391v.288A.257.257,0,0,0,8.92,7.1h2.02a.257.257,0,0,0,.252-.262V6.319a.258.258,0,0,0-.252-.262h-.884L11.024,4.9a.533.533,0,0,0,.169-.391V4.225a.258.258,0,0,0-.252-.262ZM4.514,6.657H5.635l.07.211a.253.253,0,0,0,.24.181h.393a.257.257,0,0,0,.252-.262A.271.271,0,0,0,6.575,6.7L5.64,4.083A.254.254,0,0,0,5.4,3.909H4.748a.253.253,0,0,0-.238.174L3.575,6.7a.266.266,0,0,0-.015.088.257.257,0,0,0,.252.262H4.2a.253.253,0,0,0,.24-.181l.07-.211Zm2.28-1.583a.3.3,0,0,0-.3.306v.306a.3.3,0,0,0,.3.306H8.448a.3.3,0,0,0,.3-.306V5.381a.3.3,0,0,0-.3-.306Zm-1.46.667H4.816l.259-.785.259.785Z" transform="translate(0.5 0.5)" fill="currentColor" stroke="rgba(0,0,0,0)" stroke-miterlimit="10" stroke-width="1"/>
</svg>
