<svg id="glossar" xmlns="http://www.w3.org/2000/svg" width="128" height="128" viewBox="0 0 128 128">
  <circle id="Ellipse_1" data-name="Ellipse 1" cx="64" cy="64" r="64" fill="#990080"/>
  <path id="Ausschluss_14" data-name="Ausschluss 14" d="M65.57,77H9.625A9.636,9.636,0,0,1,0,67.375V12.031A12.028,12.028,0,0,1,12.031,0H63.766a3.6,3.6,0,0,1,3.609,3.609V58.953a3.608,3.608,0,0,1-2.241,3.339,28.635,28.635,0,0,0-.06,9.9h.5a1.807,1.807,0,0,1,1.8,1.8v1.2A1.807,1.807,0,0,1,65.57,77ZM9.625,62.563a4.812,4.812,0,1,0,0,9.625H60.8a34.129,34.129,0,0,1,0-9.625ZM41.881,19.375a1.271,1.271,0,0,0-1.3,1.239v1.239a1.271,1.271,0,0,0,1.3,1.24h6.255L41.313,29.81a2.41,2.41,0,0,0-.731,1.723V33.01a1.271,1.271,0,0,0,1.3,1.239H52.263a1.271,1.271,0,0,0,1.3-1.239V31.771a1.271,1.271,0,0,0-1.3-1.24H46.008l6.823-6.718a2.407,2.407,0,0,0,.73-1.723V20.615a1.271,1.271,0,0,0-1.3-1.239ZM20.826,31.151h6.107l.853,2.251a1.285,1.285,0,0,0,1.226.848h1.362a1.271,1.271,0,0,0,1.292-1.239,1.184,1.184,0,0,0-.067-.392l-4.952-12.4a1.292,1.292,0,0,0-1.226-.847H22.339a1.285,1.285,0,0,0-1.225.847l-4.953,12.4a1.184,1.184,0,0,0-.067.392,1.272,1.272,0,0,0,1.292,1.239h1.361a1.285,1.285,0,0,0,1.226-.848l.853-2.25ZM32.1,25.042a.954.954,0,0,0-.974.931v1.86a.954.954,0,0,0,.974.931l7.614.083a.954.954,0,0,0,.975-.931V26.054a.954.954,0,0,0-.975-.931Zm-6.576,2.39H22.235l1.644-4.338,1.644,4.337Z" transform="translate(30 26)" fill="#fff" stroke="rgba(0,0,0,0)" stroke-miterlimit="10" stroke-width="1"/>
</svg>
